<?xml version="1.0" encoding="UTF-8"?><svg id="Calque_1" xmlns="http://www.w3.org/2000/svg" viewBox="0 0 502 304"><g><path d="m192.43,205.31c-4.56-2.52-10.09-3.72-16.81-3.72h-32.54v86.69h15.73v-29.3h16.57c6.72,0,12.37-1.2,16.93-3.72s8.04-5.88,10.33-10.21c2.28-4.32,3.48-9.25,3.48-14.77s-1.2-10.45-3.48-14.77c-2.28-4.32-5.64-7.68-10.21-10.21h0Zm-4.08,33.14c-1.2,2.4-3,4.2-5.52,5.64s-5.64,2.04-9.61,2.04h-14.41v-31.34h14.41c3.96,0,7.08.6,9.61,1.92s4.32,3.12,5.52,5.52,1.8,5.04,1.8,8.16-.6,5.76-1.8,8.04h0Z"/><path d="m226.77,197.38c-2.4,0-4.56.84-6.24,2.4-1.68,1.56-2.64,3.6-2.64,5.88s.84,4.2,2.64,5.88c1.8,1.68,3.84,2.4,6.24,2.4s4.56-.84,6.24-2.4c1.68-1.68,2.64-3.6,2.64-5.88s-.84-4.32-2.64-5.88c-1.8-1.56-3.72-2.4-6.24-2.4Z"/><rect x="219.08" y="223.32" width="15.37" height="64.96"/><path d="m279.48,276.03c-.84.12-1.68.24-2.64.24-1.32,0-2.4-.24-3.48-.6s-1.92-1.08-2.52-2.16-.96-2.64-.96-4.68v-33.62h12.85v-11.89h-12.85v-15.61h-15.37v15.61h-9.25v11.89h9.25v36.14c0,4.08.84,7.44,2.64,10.21,1.8,2.76,4.2,4.68,7.32,6,3.12,1.32,6.48,1.92,10.33,1.8,2.16-.12,3.96-.24,5.52-.6s2.64-.6,3.48-.96l-2.64-12.01c-.36,0-.96.12-1.68.24h0Z"/><path d="m315.02,237.37c2.4-1.68,5.16-2.52,8.28-2.52,3.72,0,6.6,1.08,8.89,3.12,2.16,2.16,3.6,4.68,4.2,7.8h14.65c-.36-4.68-1.68-8.76-4.08-12.25-2.4-3.48-5.64-6.24-9.73-8.16-4.08-1.92-8.76-2.88-14.05-2.88-6.36,0-11.89,1.44-16.45,4.2-4.56,2.76-8.28,6.72-10.81,11.89-2.52,5.04-3.84,10.93-3.84,17.53s1.2,12.37,3.72,17.41c2.52,5.04,6.12,9.01,10.69,11.77,4.68,2.88,10.21,4.32,16.69,4.32,5.4,0,10.21-.96,14.17-3,4.08-2.04,7.2-4.8,9.61-8.28,2.28-3.48,3.72-7.56,4.08-12.25h-14.65c-.48,2.4-1.32,4.32-2.52,6s-2.76,2.88-4.56,3.72-3.84,1.32-6.12,1.32c-3.24,0-6-.84-8.28-2.52-2.4-1.68-4.2-4.08-5.52-7.32-1.32-3.12-1.92-6.96-1.92-11.41s.72-8.16,1.92-11.29,3.36-5.52,5.64-7.2h0Z"/><path d="m418.28,233.53c-1.8-3.6-4.44-6.36-7.8-8.28-3.36-1.92-7.32-2.88-11.77-2.88-4.92,0-9.01,1.08-12.25,3.24-3.24,2.16-5.52,5.04-7.08,8.64h-.72v-32.66h-15.01v86.69h15.37v-38.06c0-3.12.6-5.76,1.8-8.04,1.2-2.16,2.88-3.84,5.04-5.04s4.56-1.8,7.2-1.8c4.08,0,7.2,1.2,9.37,3.6s3.36,5.88,3.36,10.21v39.02h15.37v-41.18c-.12-5.28-.96-9.73-2.88-13.45h0Z"/></g><g><path d="m253.85,85.91c.82-.54,1.62-1.12,2.47-1.61.48-.28,1.05-.53,1.59-.57,2.92-.22,5.64.24,7.81,2.46,1.53,1.56,2.42,3.48,3.22,5.46,2.54,6.32,4.43,12.86,6.31,19.4,1.31,4.56,2.7,9.1,4.08,13.63.33,1.07.8,2.1,1.32,3.44.51-.57.92-.91,1.19-1.35.59-.97,1.2-1.94,1.63-2.98.34-.82.96-1.15,1.61-1.51.32.27.58.49.84.7.87-.47,1.12-1.99,2.58-1.41.15.06.51-.42.77-.66.79-.71,1.52-.61,2.19.15q-.48,2.11-.14,3.56c.58-1.24,1.05-2.27,1.53-3.29,1.41.59,1.76,1.07,1.46,2.36-.44,1.86-.91,3.72-1.52,5.53-.68,2.01-1.42,4.02-2.37,5.91-.69,1.37-1.71,2.58-2.66,3.8-.63.8-1.56,1.15-2.54,1.45-4.37,1.34-8.76,1.48-13.24.65-1.86-.35-3.51-1.16-5.09-2.08-.69-.4-1.2-1.19-1.66-1.89-1.93-2.87-2.98-6.12-3.71-9.45-.93-4.29-1.69-8.62-2.57-12.93-1.16-5.77-2.36-11.53-3.56-17.29-.08-.4-.32-.76-.62-1.44-.5.8-.89,1.36-1.22,1.96-2.55,4.64-4.08,9.65-5.37,14.74-1.61,6.4-2.51,12.93-3.52,19.44-.45,2.87-1.06,5.71-1.66,8.55-.17.82-.5,1.63-.87,2.39-.79,1.62-1.77,1.99-3.81,1.44-.8,1.19-2.09,1.2-3.48,1.27-2.46.13-4.78-.17-7.07-1.09-1.4-.56-2.36-1.46-3.09-2.74-1.17-2.06-1.85-4.3-2.38-6.58-2.01-8.58-3.28-17.26-3.89-26.06-.4-5.73-1.14-11.43-1.73-17.14-.03-.26-.16-.5-.29-.88-.8.33-.84,1.05-1.02,1.57-1.76,5.02-3.2,10.13-4.3,15.33-1.67,7.96-2.17,16-1.85,24.11.16,4.04.09,8.09.22,12.13.16,4.96.41,9.92.65,14.87.07,1.44-.03,2.84-.53,4.19-.19.52-.47,1.05-.83,1.46-.57.65-1.28.57-1.97-.12-.18-.18-.34-.39-.57-.65-.32.67-.6,1.23-.88,1.82-.39.08-.75.26-1.07.2-1.52-.26-3.02.3-4.56.04-1.51-.25-2.7-1.14-4.01-1.78-.4-.2-.57-.94-.77-1.46-.97-2.55-1.27-5.23-1.53-7.91-.94-9.9-.9-19.84-1.06-29.78-.11-6.8-.14-13.61-.27-20.41-.08-4.18-.21-8.37-.44-12.54-.39-7.23-1.23-14.4-2.69-21.5-.23-1.1-.71-2.15-1.08-3.22-.19-.53-.4-1.06-.61-1.59-.52-1.33-.19-2.34,1.1-3.02.32.15.63.3,1.07.51.38-1.42,1.72-1.66,2.79-1.83,1.03-.16,2.19.31,3.25.61.36.1.64.54.9.86,1,1.24,1.56,2.68,1.98,4.2,1.87,6.84,3.51,13.73,4.27,20.8.13,1.2.29,2.39.48,3.58.1.61.29,1.2.54,2.19.8-2,1.46-3.61,2.11-5.24,1.14-2.88,2.7-5.6,4.08-8.39.64-1.31,1.65-2.29,2.79-3.16.17-.13.31-.33.5-.39,1.08-.32,2.34-.37,3.21-.98.94-.66,1.87-1.18,2.96-1.43,3.11-.71,6.68.96,7.99,3.87.73,1.61,1.32,3.3,1.75,5.01,1.52,6.12,2.9,12.27,3.8,18.51.56,3.86,1.16,7.71,1.77,11.56.09.54.3,1.06.59,2.09.36-1.1.59-1.73.77-2.38,1.42-5.05,3.21-9.96,5.48-14.7,1.23-2.57,2.29-5.25,4.42-7.19,1.93-1.76,3.73-3.74,6.09-4.96.57-.3,1.23-.78,1.98-.32h-.13s.08.04.08.04Zm-57.9,59.74v5.21c.26-1.73.4-3.45-.02-5.17-.03-1.12-.06-2.24-.1-3.35-.1-2.58-.2-5.17-.3-7.75-.05-.77-.14-1.54-.14-2.31-.02-3.32,0-6.63-.03-9.95,0-.66.24-1.43-.49-1.93-.01-.1-.03-.2-.04-.3-.01.04-.05.09-.03.12.02.05.08.09.12.14.03,3.99.04,7.98.12,11.98.02.74.33,1.48.51,2.22-.04,3.25-.1,6.5-.09,9.75,0,.45.33.89.51,1.34Zm44.91-11.81c.2-.44.5-.86.58-1.32.74-4.17,1.43-8.35,2.14-12.52.07-.3.13-.6.2-.9-.09,0-.18-.01-.28-.02.04.32.08.64.11.97-.17.38-.41.74-.49,1.14-.63,3.04-1.25,6.08-1.81,9.13-.22,1.17-.27,2.37-.4,3.56-.08.11-.17.2-.24.32-.03.05,0,.13,0,.2.09-.05.23-.1.24-.16.02-.12-.03-.26-.06-.39Zm-48.16-37.64c.1-1.82.24-3.64-.43-5.42.15,1.79.31,3.59.46,5.38.02,4.53.02,9.05.08,13.58.03,2.61.18,5.23.24,7.84.12,4.88.18,9.75.34,14.63.19,5.73.46,11.46.7,17.19,0,.21-.01.43.03.64.02.13.13.25.2.37.16-2.4-.12-4.71-.17-7.02-.1-4.53-.19-9.05-.38-13.57-.37-9.05-.33-18.11-.46-27.17-.02-1.56-.04-3.11-.08-4.67-.01-.63.08-1.3-.52-1.75Zm1.82.09c-.12.02-.24.04-.36.06,0,2.04-.03,4.09,0,6.13.09,4.66.22,9.31.35,13.97.01.52.11,1.03.19,1.77.18-.38.29-.5.29-.62.02-3.88.03-7.76.03-11.64,0-.28-.12-.55-.14-.83-.13-1.4-.3-2.8-.35-4.2-.06-1.54-.01-3.09-.01-4.63Zm13.07,15.95c-1.53,5.35-1.37,10.85-1.26,16.35.42-5.45.84-10.9,1.26-16.35Zm-9.32-1.15c-.09,0-.18,0-.27,0v6.67h.27v-6.67Zm-.68-4.64l.18.08v-4.66h-.18v4.58Zm21.4-6.5c-.07.03-.15.06-.22.09.06.46.09.92.2,1.37.02.08.34.13.52.13.1,0,.19-.16.28-.24-.26-.45-.52-.89-.78-1.34Zm-25.21-7.11c.08.02.16.05.24.07-.04-.64-.07-1.29-.11-1.93-.04,0-.09,0-.13,0v1.86Zm26,17.4c.05,0,.11,0,.16,0v-2.11h-.16v2.11Zm-.48-4.7c.12-.03.24-.05.36-.08-.05-.56-.1-1.12-.15-1.68-.07,0-.14.01-.2.02v1.74Zm-27.11-18.22v-1.78c-.1.01-.2.02-.3.03.09.53.18,1.05.3,1.75Zm29.45,20.66c-.08,0-.15,0-.23,0,.03.52.06,1.04.09,1.56.05,0,.09,0,.14,0v-1.56Zm-22.56,23.18c-.08,0-.16.02-.24.02.03.41.05.82.08,1.23.06,0,.11-.01.17-.02v-1.23Zm23.03-18.81c-.1,0-.19.01-.29.02.07.26.15.51.22.77.02-.26.05-.52.07-.78Zm-1.11-6.95c.1,0,.2,0,.3-.01-.04-.4-.07-.79-.11-1.19h-.14c-.02.41-.04.8-.06,1.2Zm37.09-2.68c-.14.03-.29.06-.43.1.02.2.02.4.07.59.06.24.15.47.22.71.12-.03.24-.05.36-.08-.07-.44-.15-.88-.22-1.32Zm-37.4-1.95s.04,0,.06,0v-.49s-.04,0-.06,0v.49Zm-.26,12.18c-.03-.12-.07-.23-.1-.35-.08.07-.21.13-.22.2-.01.11.06.23.1.34.07-.07.15-.13.22-.2Zm-25.6,40.83c0-.07-.01-.14-.02-.21-.05.07-.12.13-.15.21-.01.04.05.11.08.16.03-.06.06-.11.09-.17Zm25.46-56.1c.02-.14.03-.24.05-.33-.03.03-.07.07-.07.1,0,.06.01.12.03.23Zm-12.39,12.17c-.02.12-.04.25-.05.37,0,.01.09.03.15.05.02-.12.04-.25.05-.37,0-.01-.09-.03-.15-.05Zm-14.43-22.37s.08-.1.08-.15c0-.05-.05-.1-.08-.15-.03.05-.08.1-.08.15,0,.05.05.1.08.15Zm-.49-4.39l.1.08v-.15s-.1.08-.1.08Zm67.98,35.36c0-.05.03-.16.02-.16-.09-.03-.19-.04-.28-.05.03.09.07.18.1.27.05-.02.1-.04.16-.06Zm-1-5.13c.02-.05.04-.11.07-.16-.07.03-.14.06-.22.1.05.02.1.04.15.06Zm-62.24-39.64c-.05.1-.12.21-.15.32,0,.03.08.12.12.13.05,0,.14-.08.14-.11-.02-.11-.07-.22-.11-.33Z"/><path d="m23.22,160.28c-.59-1.36-1.27-2.69-1.75-4.09-1.78-5.17-3.02-10.48-3.93-15.87-.19-1.11-.36-2.24-.44-3.36-.07-.89-.22-1.78.85-2.41.37-.22.37-1.14.44-1.76.08-.76.06-1.54.07-2.3,0-.34,0-.69-.09-1.02-.29-1.08-.62-2.15-.97-3.34-.2.62-.4,1.2-.7,2.11-.21-.53-.35-.75-.38-.99-1.14-9.24-.52-18.4,1.22-27.51,1.94-10.14,4.95-19.95,9.01-29.43,2.23-5.22,4.81-10.28,7.76-15.14,2.86-4.7,6.42-8.76,10.7-12.28,2.98-2.45,6.01-4.73,9.41-6.52,3.36-1.76,6.91-2.94,10.69-3.39,4.4-.52,8.46.57,12.24,2.73,1.09.62,2.12,1.45,2.99,2.37,3.54,3.72,5.89,8.14,7.22,13.08.27,1.02.31,2.1.45,3.15.21,1.54.33,3.1.65,4.62.2.96.03,1.63-.83,2.25-.4-.33-.76-.63-1.23-1.01-.17.42-.32.79-.5,1.21-1.1-.25-2.29.13-3.34-.63-.65-.47-1.26-.91-1.47-1.73-.35-1.37-.81-2.72-1.06-4.1-.84-4.69-3.11-8.64-6.18-12.17-1.01-1.17-2.23-2.17-3.44-3.14-1.14-.92-2.43-.94-3.8-.35-2.9,1.23-5.48,2.96-7.99,4.83-7,5.24-11.75,12.18-15.44,20-4.5,9.55-7.76,19.49-9.73,29.84-1.73,9.09-2.45,18.25-1.58,27.52.81,8.7,2,17.32,4.38,25.74,1.55,5.47,3.43,10.82,6.46,15.68,2.64,4.24,5.77,8.08,9.71,11.2,4.55,3.62,9.77,5.09,15.51,4.57,2.21-.2,4.17-1.33,6.11-2.35,3.82-2.01,6.89-4.97,9.87-8.02,3.49-3.57,6.1-7.78,8.86-11.89,2.13-3.18,4.25-6.37,5.85-9.86,1.3-2.83,2.52-5.7,3.64-8.61.5-1.3.94-2.67.79-4.14-.06-.54.2-1.11.31-1.66.3-1.5,1.51-1.91,2.78-2.29.31.24.63.48.92.71.2-.1.39-.14.44-.24.43-.92,1.01-1.44,2.15-1.28.59.08,1.26-.14,1.86-.33,1.03-.31,1.93-.16,2.82.44.46.31.99.52,1.52.7,2.11.72,3.3,2.3,3.42,4.6.17,3.03-.51,5.93-1.52,8.74-2.29,6.36-5.32,12.36-9.05,18.01-1.83,2.78-3.64,5.58-5.54,8.31-4.23,6.09-9.44,11.12-16.04,14.63-4.63,2.46-9.56,3.81-14.79,4.35-4.78.49-9.49.28-14.2-.49-5.93-.96-11.48-2.96-16.75-5.91-4.81-2.69-8.56-6.41-11.99-10.64-2.16-2.67-3.73-5.66-5.43-8.59-.45-.78-.67-1.71-.99-2.57h.18s-.14.03-.14.03Zm-3.29-29.3l-.06.02.02-.06.06-.02v.06Zm2.62-46.35c-.74.31-.33.93-.39,1.43-.12.06-.24.12-.35.2-.04.03-.05.12-.07.18.08-.02.2-.01.23-.06.08-.11.11-.24.16-.37.12-.47.24-.94.36-1.41,0-.1.02-.2.03-.3,0,.11.02.22.03.34Zm81.11,52.91l.52-.51c-.09-.06-.19-.12-.28-.18-.08.25-.16.49-.24.74,0-.02,0-.03,0-.05ZM24.36,103.97c-.68.38-.6,1.05-.65,1.68-.06.7-.2,1.39-.25,2.09-.04.54,0,1.09,0,1.64.07,0,.15,0,.22,0,.23-1.81.45-3.63.68-5.44.05-.59.11-1.18.16-1.77-.11,0-.23,0-.34,0,.07.6.13,1.2.2,1.8Zm-3.49-3.94c-.16.31-.4.61-.46.94-.34,1.81-.76,3.61-.91,5.43-.17,1.98-.84,3.97-.21,6.08.19-1.36.38-2.61.53-3.87.35-2.88.68-5.75,1.02-8.63l.21-.9c-.08,0-.16-.02-.23-.03.02.33.04.65.06.98Zm92.24,43.98c.12-.06.31-.09.36-.19,1.2-2.39,2.15-4.86,2.36-7.55.02-.21-.2-.44-.49-1.03-1.04,3.14-2.2,5.82-2.18,8.83-.05.05-.11.09-.14.15-.02.04,0,.09,0,.14.03-.11.07-.23.1-.34ZM21.25,88.9c-.3.7-.71,1.36-.89,2.09-1.38,5.48-2.36,11.02-2.95,16.64-.19,1.8-.16,2.39.24,3.58.06-.24.14-.44.16-.64.32-4.87,1.12-9.67,2.09-14.44.49-2.41.88-4.85,1.31-7.28.09-.11.18-.21.25-.33.03-.05,0-.14.01-.21-.08.05-.2.09-.22.16-.03.13,0,.28,0,.42Zm13.29-11.61c-.07-.01-.14-.03-.21-.04-.2.44-.43.88-.59,1.33-2.01,5.61-3.66,11.32-4.49,17.23-.47,3.36-.85,6.74-1.23,10.12-.17,1.51-.12,1.51.3,2.68.78-5.24,1.35-10.53,2.38-15.72,1.04-5.25,2.54-10.41,3.84-15.6Zm-17.35,39.35q-.24.81.18,1.54c-.07-.63-.12-1.02-.18-1.54Zm1.11,20.18c.08-.07.17-.13.25-.2-.17-.23-.35-.46-.52-.7-.09.08-.26.22-.25.23.16.23.34.45.52.66Zm1.98-7.63c-.09-.18-.15-.37-.27-.51-.03-.04-.35.09-.35.11.02.18.08.36.17.52.01.02.24-.07.44-.13Zm1.19-32.51s-.1,0-.15,0v.54s.14,0,.14-.01c0-.17,0-.35,0-.52Zm3.37,3.04c.02-.05.08-.13.06-.15-.05-.05-.12-.07-.18-.1,0,.06-.01.12,0,.17.01.03.07.05.11.08Zm10.6-25.15s-.04.1-.06.15c.06-.03.12-.06.19-.1-.04-.02-.08-.04-.13-.05Z"/><path d="m435.62,137.68c-4.65.22-9.3-.22-13.87-1.31-6.2-1.47-11.74-4.16-15.97-9.13-1.71-2.02-3.14-4.19-4.2-6.62-2.43-5.63-3.62-11.45-3.13-17.61.26-3.33.48-6.64,1.23-9.91,1.61-7.04,4.89-13.27,9.16-19.03,3.12-4.2,6.79-7.84,11.18-10.68,3.65-2.36,7.57-4.13,12.03-4.41,4.21-.26,8,.84,11.42,3.23,1.22.85,2.35,1.83,3.56,2.7,2.09,1.49,4.29,2.69,6.93,2.99,1.58.18,3.16.61,4.67,1.14,1.89.66,2.58,2.3,2.1,4.28-.39,1.59-1.19,2.78-2.63,3.68-3.08,1.91-6.24,3.65-9.57,5.07-4.04,1.73-8.01,3.62-12.09,5.23-6.14,2.43-12.58,3.89-19.04,5.2-.28.06-.56.08-.84.12-.89.15-1.36.68-1.43,1.58-.1,1.34-.22,2.69-.3,4.03-.4,6.63,1,12.84,4.6,18.46,2.26,3.53,5.19,6.36,8.93,8.32,2.51,1.32,5.2,1.61,8.02,1.67,4.32.09,7.83-1.7,11.16-4.1,5.28-3.8,9.78-8.41,13.77-13.52,1.97-2.51,3.88-5.07,5.81-7.61.64-.85,1.23-1.69,1.45-2.8.25-1.3,1.35-2.02,2.44-2.51,2.12-.95,4.25-1.91,6.61-2.13,1.34-.12,2.68-.26,3.95.44.42.23.96.23,1.43.35,1.83.49,3.27,2.11,3.22,4-.04,1.47-.28,2.97-.7,4.37-1.28,4.26-3.57,8.03-6.16,11.6-4.92,6.8-10.85,12.52-18.16,16.76-4.54,2.63-9.47,4.1-14.53,5.24-3.63.82-7.3.99-11.05.87Zm-35.23-40.13c-.2.34-.56.67-.58,1.03-.12,2.11-.21,4.22-.22,6.32,0,1.03.17,2.06.27,3.09.11,0,.22-.01.33-.02.06-3.49.12-6.98.18-10.46.04-.31.08-.63.12-.94-.07,0-.13,0-.2,0,.03.33.06.66.09.99Zm18.1-12.59c2.06-.74,3.88-1.34,5.64-2.05,1.77-.71,3.52-1.49,5.24-2.34,1.78-.87,3.52-1.83,5.25-2.81,1.6-.91,3.45-1.44,4.79-2.77-2.93-2.1-5.73-4.11-8.54-6.12-4.31,2.42-11.44,11.53-12.38,16.09Zm-7.16,9.16c-1.18,2.6-1.19,7.23-.01,9.8.01-3.44.13-6.62.01-9.8Zm-9.08,7.32c-.77,4.8-.77,4.81,0,6.65v-6.65Zm4.06,3.31c.06.02.12.05.18.07v-2.68c-.06,0-.12,0-.18,0v2.61Z"/><path d="m336.38,136.16c-.62.63-1.08,1.04-1.48,1.51-1.81,2.12-4.09,3.35-6.81,4.06-4.84,1.27-9.64,1.34-14.51.29-4.84-1.04-8.36-3.7-10.41-8.23-1.82-4.03-3.17-8.19-3.46-12.64-.57-8.74-.13-17.44,1.34-26.07.99-5.82,2.63-11.46,5.06-16.86,1.22-2.72,2.58-5.38,4.42-7.73,2.75-3.51,5.98-6.46,10.33-7.86,2.61-.84,5.28-.97,7.94-.05,1.32.46,2.45,1.1,3.22,2.29.18.28.4.55.79,1.08.24-1.3.44-2.3.59-3.31.19-1.22.9-1.83,2.12-1.95.32-.03.67-.15.92-.34,2.08-1.6,4.28-1.53,6.54-.48.64.3,1.27.63,1.87,1,1.42.87,1.6,2.35.42,3.56-.29.29-.7.46-1.15.76.11,1.64.14,3.34.34,5.01.77,6.61,1.56,13.21,2.38,19.81.65,5.2,1.35,10.39,2.01,15.59.05.4-.05.82-.08,1.24-.02.27-.15.6-.04.81,1.21,2.25,1.13,4.8,1.41,7.21.35,2.97,1,5.85,1.64,8.74.86,3.87,1.84,7.71,2.83,11.55.25.97.29,2.11,1.6,2.54.6.2.6.91.41,1.49-.3.97-.41,1.91.37,2.94.44-1.3.83-2.46,1.2-3.56,1.07.02,1.63.5,1.55,1.31-.26,2.6.31,5.26-.49,7.83-.17.54-.29,1.12-.58,1.59-.62,1.02-1.47,1.78-2.78,1.45-.61-.15-1.08-.07-1.56.35-.3.26-.72.53-1.1.54-1.76.05-3.57.26-5.28-.04-1.85-.32-3.7-.82-5.42-1.71-.99-.51-1.82-1.13-2.3-2.11-.61-1.27-1.23-2.55-1.66-3.89-.77-2.42-1.4-4.89-2.2-7.72Zm.56-23.77c-.05.89-.1,1.77-.15,2.66.13,0,.26,0,.39-.01-.09-.87-.17-1.74-.26-2.6-.21-2.96-.43-5.92-.62-8.89-.26-4.02-.55-8.04-.74-12.07-.2-4.1-.33-8.19-.44-12.29-.06-2.19-.01-4.39-.01-6.58-.14,0-.29,0-.43,0,0,1.54,0,3.08,0,4.62.03,6.94.13,13.87.74,20.79.39,4.43.66,8.88,1.02,13.32.03.37.33.71.5,1.06Zm-2.09-3.36c-.6,1.37-.06,2.73,0,4.09.25-1.35.3-2.7-.03-4.05-.05-.99-.08-1.97-.15-2.96-.26-3.95-.69-7.91-.75-11.86-.12-8.57-.05-17.15-.07-25.73,0-.21-.12-.42-.18-.63-.25.38-.32.73-.28,1.06.28,2.06.02,4.1-.22,6.15-.08.63-.11,1.27-.12,1.91-.06,7.29-.06,14.58.62,21.85.03.35.07.74-.04,1.05-.11.31-.41.56-.74.96-.16-.44-.28-.62-.29-.82-.13-2.82-.3-5.64-.36-8.46-.07-3.4-.04-6.81-.07-10.21-.01-1.37-.53-2.6-1.15-3.82-.2.36-.26.69-.31,1.03-.05.41-.09.83-.14,1.22-.67.12-1.24.28-1.83.31-1.17.06-2.33-1.21-2.49-2.69-.17-1.48-.31-2.96-.47-4.44-.08-.78-.33-1.48-.9-2.23-.35.33-.66.52-.82.79-.73,1.21-1.52,2.41-2.09,3.69-3.36,7.54-5.04,15.47-5.31,23.7-.12,3.61-.1,7.24.05,10.85.13,3.11.38,6.23.85,9.3.61,4.02,2.07,7.8,4.14,11.31.49.83.96,1.74,2.09,2.11.65-.55,1.33-1.07,1.94-1.65,2.8-2.65,5.06-5.73,7.27-8.87.79-1.12,1.05-2.25.94-3.59-.41-4.8-.76-9.61-1.14-14.41-.04-.49-.17-1-.09-1.47.05-.29.41-.53.93-1.15.21,2.08.41,3.68.5,5.29.05.87.1,1.69.7,2.38Zm-20.84-19.82c-2.56,4.52-2.26,21.11-1.06,25.64.31-8.87-.49-17.31,1.06-25.64Zm-12.75,30.18c.14-7.78.12-15.55.82-23.3-1.45,7.73-1.63,15.5-.82,23.3Zm2.24-14.2c-.14-.02-.28-.04-.41-.05.32,4.74-.76,9.48.41,14.22v-14.17Zm34.91-38.72h-.25v12.46c.08,0,.17,0,.25,0v-12.46Zm-30.64,40.23c-.54,2.5-.49,6.88,0,8.46v-8.46Zm30.84-20.22c.08,0,.16,0,.25,0,.02-.48.06-.95.06-1.43,0-.56,0-1.13-.03-1.69-.02-.41-.08-.81-.13-1.22-.05,0-.1.01-.15.02v4.32Zm-7.01-14.64c-.27,1.22-.49,2.45,0,3.67v-3.67Zm10.26-3.01c-.14,0-.29-.01-.43-.02.04.94.08,1.88.13,2.83.1,0,.2,0,.3,0v-2.8Zm.57,6.82c-.18,0-.35-.02-.53-.02.05.6.09,1.2.14,1.8.06,0,.12,0,.18,0,.07-.59.14-1.18.21-1.77Zm-3.42,16.52c.12-.02.23-.03.35-.05-.04-.64-.08-1.29-.12-1.93-.08,0-.15,0-.23,0v1.97Zm-3.88,25.19c.14-.03.28-.07.42-.1-.04-.68-.08-1.36-.12-2.03-.1,0-.2.01-.3.02v2.12Zm-.95-52.74c-.09-.02-.17-.04-.26-.06v.9c.07,0,.13,0,.2,0,.02-.28.04-.56.06-.85Zm8.95,21.34c-.12.1-.21.15-.2.18.03.14.08.27.12.41.02-.17.05-.34.08-.59Zm-.44-4.2c-.02-.12-.04-.25-.06-.37-.07.06-.19.12-.2.19-.02.12.04.25.06.37.07-.07.14-.13.21-.2Zm-3.15,14.48c.07-.1.17-.2.17-.29,0-.12-.09-.24-.15-.36-.07.09-.19.18-.19.28,0,.12.1.24.16.38Zm1.85,51.93c.06-.11.12-.21.19-.32-.14-.08-.27-.15-.41-.23-.02.12-.09.26-.06.36.03.09.18.13.28.19Zm-14.6-71.16l-.07.12.11.02-.03-.14Zm8.66-7.57c-.05-.11-.1-.21-.15-.32-.05.03-.15.06-.15.1,0,.12.02.24.04.36.09-.04.17-.09.26-.13Zm11.81,49.32s0,.11.03.13c.04.03.1.03.16.04-.01-.07-.02-.15-.04-.22-.05.02-.1.03-.15.05Zm-44.67-24.93s-.05-.09-.07-.13l-.02.25s.06-.08.09-.12Z"/><path d="m388.31,131.79c.8-.45,1.31-.87,1.9-1.05.87-.27,1.54.4,1.38,1.3-.11.62-.34,1.23-.45,1.85-.05.29.03.61.34.96.44-1.13.89-2.26,1.33-3.39,1.73.69,1.96.98,1.91,2.27-.01.28-.06.56-.11.84-.41,2.37-.77,4.75-1.26,7.11-.26,1.24-.64,2.47-1.13,3.64-.56,1.34-1.59,2.14-3.15,2.06-.28-.02-.62-.09-.84.02-2.69,1.4-5.49.94-8.28.48-3.6-.59-6.07-2.49-7.17-6.09-.91-3-1.72-6.01-1.86-9.15-.32-7.23-.56-14.45-.84-21.68-.25-6.38-.48-12.76-.75-19.14-.3-7.09-.65-14.17-.97-21.26-.06-1.28-.18-2.56-.13-3.83.05-1.42-.41-2.48-1.67-3.11.13-1.2.1-2.37,1.18-3.22.28-.22.22-.93.23-1.42.12-4.26.17-8.51.35-12.77.24-5.45.45-10.92.94-16.35.29-3.23,1.09-6.42,1.69-9.61.1-.55.33-1.09.57-1.6.62-1.32,1.16-2.65,2.94-2.96.91-.16,1.72-.86,2.57-1.32.65.21.93,1.15,1.84.79.12-.05.75.64.81,1.04.14.9.23,1.87.06,2.75-.61,3.25-.21,6.51-.21,9.77,0,3.55.13,7.09.24,10.64.12,3.9.28,7.8.44,11.7.02.47.13.94.23,1.6,1.28-.53,2.45-.67,3.49-1.55,1.06-.89,2.4-1.46,3.66-2.09,3.34-1.67,6.65-3.39,10.07-4.89,2.52-1.1,5.02-2.27,7.75-2.89,1.57-.36,3.08-.98,4.69-1.23,1.54-.23,3.06-.63,4.47.5.28.23.8.15,1.21.21,1.97.3,3.02,1.67,2.59,3.59-.2.88-.64,1.71-1.04,2.54-.14.3-.44.65-.74.73-2.71.67-4.95,2.36-7.53,3.34-7.02,2.65-13.98,5.47-20.95,8.26-2.1.84-4.15,1.81-6.21,2.74-.31.14-.57.4-.94.66.2,2.26.39,4.51.6,6.76.36,3.88.7,7.76,1.09,11.64.33,3.31.73,6.62,1.08,9.93.51,4.72,1.03,9.44,1.52,14.16.85,8.11,1.67,16.22,2.52,24.32.08.76.33,1.5.53,2.36Zm-17.17-58.15v-6.44c-.03,2.13-.56,4.27.03,6.39.05,2.26.08,4.53.17,6.79.09,2.33.23,4.66.4,6.98.16,2.16.38,4.31.58,6.46.2-1.57.27-3.12.19-4.67-.23-4.45-.52-8.89-.79-13.33-.05-.77.07-1.58-.58-2.19Zm1.09,53.79v3.48c.18-1.15.55-2.32-.04-3.44-.01-1.77,0-3.54-.04-5.31-.11-4.67-.24-9.34-.36-14.01-.05-1.84-.03-3.69-.15-5.52-.21-3.31-.53-6.61-.76-9.92-.17-2.39-.3-4.79-.41-7.19-.15-3.39-.27-6.78-.41-10.18-.02-.5-.06-.99-.08-1.49-.01-.42,0-.85-.02-1.27-.03-.4-.09-.8-.14-1.2-.28.43-.3.85-.28,1.26.14,3.39.28,6.79.44,10.18.16,3.46.35,6.92.51,10.38.23,4.88.5,9.76.67,14.64.21,5.87.32,11.75.49,17.63.02.69-.06,1.44.57,1.97Zm.55-31.34h-.26c0,1.06-.05,2.11.01,3.15.09,1.55.34,3.1.38,4.65.19,6.44.33,12.88.51,19.32.03.99.24,1.96.32,2.95.08.97-.03,1.96.34,2.9.12-1.35.17-2.69.11-4.03-.22-5.37-.49-10.74-.72-16.11-.18-4.1-.35-8.2-.53-12.3,0-.18-.11-.35-.17-.53Zm-3.34-37.02v-20.02c-.34,1.88-.62,18.53,0,20.02Zm7.98-37.79c-.94,1.56-.54,3.28-.61,4.93-.07,1.7,0,3.4.02,5.11.01,1.63.05,3.26.05,4.89,0,1.7-.06,3.4-.05,5.11,0,1.66.05,3.32.08,4.98.43-8.34.02-16.68.52-25.01Zm-6.69,27.58s-.09.04-.14.06v9s.09,0,.14,0v-9.06Zm6.85,59.6c-.12.01-.25.02-.37.03,0,.62,0,1.24,0,1.87,0,.56,0,1.12.04,1.68.03.54.08,1.09.12,1.63.07,0,.14-.01.21-.02v-5.19Zm-7.93-72.3h.2v-4.37c-.07,0-.13,0-.2,0v4.37Zm8.1,84.41c.07-.02.15-.04.22-.07v-4.29c-.07,0-.15,0-.22,0v4.35Zm-.81-15.03c.06,0,.12,0,.18,0v-3.68c-.06,0-.12,0-.18,0v3.68Zm.61-55.11l-.22.05v3.03c.07,0,.15,0,.22,0v-3.07Zm-8.06,15.35c-.08,0-.16,0-.25,0v3.21c.08,0,.16,0,.25,0v-3.21Zm5.76,15.27s.08,0,.12,0v-2.25s-.08,0-.12,0v2.25Zm-.3-7s-.07,0-.1,0v2.14h.1v-2.14Zm7.56,44.54l.11.07v-1.59s-.07,0-.11,0v1.52Zm-.44-5.24c.07-.02.13-.04.2-.06-.03-.53-.06-1.07-.09-1.6-.04,0-.07,0-.11,0v1.65Zm-10.99-77.29s-.02,0-.03,0v1.35s.02,0,.03,0v-1.35Zm10.61,71.21s.03,0,.05,0v-1.13s-.03,0-.05,0v1.13Zm-11.57-78.52s.08,0,.12,0v-.76h-.08c-.01.25-.03.51-.04.76Zm11.18,72.57l-.05.15.06.03v-.17Zm-6.81-33.44c0-.07,0-.14.01-.21-.04.04-.07.09-.1.14,0,0,.06.05.09.07Zm2.16,28.87s-.13,0-.13.02c-.01.06,0,.13,0,.2.05,0,.13,0,.13-.02.02-.06,0-.13,0-.2Zm2.55-18.28l-.09-.08v.16s.09-.08.09-.08Zm-2.66,20.77l.08.07v-.13s-.08.06-.08.06Zm1.68,25.1l.09.07v-.14s-.09.07-.09.07Zm-2.55-38.39l.09.07v-.15s-.09.08-.09.08Z"/><path d="m131.09,163.44c-.07-1.64-.15-3.26-.21-4.6-.23,1.03-.51,2.32-.8,3.6-.07,0-.14,0-.21,0-.04-.25-.12-.5-.13-.74-.15-7.66-.31-15.31-.42-22.97-.12-7.94-.1-15.87-.3-23.81-.34-12.84-.75-25.67-1.25-38.5-.28-7.23-.86-14.44-1.21-21.67-.29-5.88-.45-11.77-.64-17.65-.03-.92.02-1.85.11-2.76.14-1.36.54-1.69,1.91-2.11.89-.27,1.77-.66,2.58-1.12,1.23-.71,2.17.27,3.16.56.81.23,1.12,1.35,1.02,2.18-.35,2.87.35,5.64.69,8.44.68,5.62,1.61,11.22,2.36,16.84.88,6.53,1.75,13.06,2.49,19.61.58,5.07.99,10.16,1.44,15.24.53,6.07,1.08,12.15,1.51,18.23.47,6.58.68,13.18.61,19.78-.05,4.68.04,9.36-.11,14.03-.13,4.09-.43,8.19-.83,12.26-.12,1.22-.8,2.4-1.27,3.57-.38.96-1.12,1.42-2.17,1.37-.34-.02-.84-.12-1.01.06-.91.96-2.06.63-3.15.8-1.49.23-2.75-.22-4.17-.61Zm5.47-26.99c-.12-4.17-.22-8.35-.35-12.52-.16-5.31-.34-10.61-.52-15.91,0-.12-.1-.25-.35-.82,0,1.21-.03,1.92,0,2.62.11,2.4.32,4.8.33,7.21.07,10.2.09,20.4.1,30.6,0,.97.03,1.88.78,3.02,0-1.45-.02-2.56,0-3.68.03-1.11.17-2.19.07-3.33-.2-2.21-.07-4.46-.07-6.69,0-.17,0-.33,0-.5Zm2.73,21.75l.62.06c.22-.87.53-1.73.62-2.61.11-1.05.02-2.12.04-3.19.02-.96,1.03-1.88.11-2.89-.07-.08.08-.4.18-.58.47-.77.4-1.57.33-2.44-.12-1.61.11-3.25-.04-4.85-.18-1.95.08-3.89-.09-5.85-.32-3.66-.39-7.34-.53-11.01-.07-1.77-.06-3.55-.1-5.32-.01-.52-.09-1.04-.14-1.56-.53,13.43-.16,26.84-1.01,40.24Zm-9.45-71.79c-.18-.02-.35-.04-.53-.06,0,.55-.01,1.1,0,1.65.15,6.24.32,12.48.45,18.71.15,6.88.31,13.75.38,20.63.07,7.02.03,14.04.06,21.05,0,.74-.11,1.51.36,2.35.66-.81.48-1.62.46-2.35-.06-3.25-.26-6.5-.25-9.74.04-11.91.03-23.81-.57-35.71-.19-3.67-.27-7.35-.36-11.03-.05-1.83,0-3.67,0-5.5Zm2.79,63.39c.06-.67.14-1.15.13-1.63-.04-2.69-.13-5.37-.16-8.06-.05-4.02,0-8.04-.09-12.06-.16-7.21-.38-14.42-.57-21.63-.03-1.26-.05-2.52-.07-3.78-.28.19-.38.38-.38.58.53,15.07.55,30.14.53,45.22,0,.34.11.69.18,1.03.01.05.1.08.44.34Zm-1.44-49.64c.05,0,.11,0,.16,0v-8.1c-.05,0-.11,0-.16,0v8.1Zm-1.9-22.77c-.08.02-.16.03-.24.05v6.41c.08,0,.16,0,.24,0v-6.45Zm-2.59-42c-.15,1.73-.45,3.46,0,5.17v-5.17Zm4.26,48.11c-.38,2.09-.33,3.81,0,4.87v-4.87Zm-2.34-9.45c.07,0,.14,0,.21.01v-4.31c-.07,0-.14,0-.21,0v4.3Zm11.09,41.42c.1,0,.19,0,.29,0,0-.76,0-1.52,0-2.28-.01-.69-.04-1.39-.07-2.08-.07,0-.14.01-.22.02v4.33Zm-9.36-35.4h.16v-3.84c-.05,0-.1,0-.16,0v3.85Zm4.68,24.15s.08-.03.12-.05v-3.11s-.08,0-.12.01v3.15Zm-.43-8.13s.07-.03.1-.05v-3.12s-.07,0-.1.01v3.16Zm-7.22-41.59h.12v-3.04s-.08,0-.12,0v3.04Zm-.47-7.22c.06.02.11.04.17.06v-2.16c-.06,0-.11,0-.17,0v2.09Zm3.04,25.18h.12v-2.01h-.12v2.01Zm-1.71-6.46s.06,0,.09,0v-2.03s-.06,0-.09,0v2.03Zm2.54,89.66s.08,0,.11,0v-1.81s-.08,0-.11,0v1.81Zm8.64-50.21c-.06.07-.15.12-.15.18-.01.47,0,.95,0,1.42.05,0,.1,0,.15,0v-1.61Zm-5.14-18.46s-.02,0-.03,0v.99s.06,0,.09,0c-.02-.33-.04-.66-.06-.99Zm-6.37-28.1s-.08,0-.11-.01l.04.62s.05,0,.07,0v-.6Zm.43-10.29s-.04,0-.06,0v.6s.04,0,.06,0v-.6Zm1.22,17.02c.01-.14.03-.24.04-.34-.03.04-.09.08-.09.12,0,.06.03.12.06.22Zm-.86-10.19l.07-.11-.1-.02.03.14Z"/><path d="m480.88,238.32c.38.1.58.15.78.2,1.36.35,1.72.93,1.13,2.07-.42.81-1,1.55-1.53,2.3-.79,1.09-1.63,2.14-2.4,3.26-1.14,1.67-1.13,1.69-3.16.97-.27.24-.57.54-.91.78-.28.2-.61.35-.94.45-.76.23-1.3-.77-2.21-.33-.57.28-1.37.21-2.04.1-.75-.13-1.47-.48-2.33-.78-.14-.86-.29-1.74-.49-2.97-.37.53-.54.78-.85,1.22.16-.12.11-.08.07-.05-.03-.06-.08-.12-.07-.18.09-.98.01-2.02.32-2.92,1.53-4.48,2.25-9.06,2.32-13.79.05-3.05.28-6.09.46-9.14.04-.62.19-1.24.4-1.86.58,1.99.1,4.04.54,6.05.23-4.12.47-8.24.7-12.37-.1-.03-.2-.06-.3-.09-.17.41-.33.81-.5,1.22-.1-.01-.2-.03-.31-.04-.05-.46-.17-.92-.14-1.37.15-2.69.32-5.38.52-8.07.04-.46.18-1.1.5-1.31.52-.34.96-.64.93-1.28-.05-.83-.01-1.74-.34-2.47-.76-1.7-.69-3.11.53-4.6-.69-1.25-.79-2.47.35-3.63.25-.26.26-.98.11-1.38-.65-1.67-.76-3.31.22-4.86.6-.95-.35-1.8-.06-2.66.3-.88.77-1.65.16-2.61-.22-.35-.24-.99-.08-1.39.36-.91.31-1.77.13-2.7-.17-.9-.18-1.84-.14-2.75.17-3.96.03-7.95.8-11.87.12-.6-.13-1.26-.11-1.88.08-2.26.11-4.54.33-6.79.4-4.09.84-8.18,2.02-12.14.26-.87.7-1.69,1.15-2.48.43-.75,1.04-1.29,2.01-1.39.62-.06,1.27-.28,1.8-.6,1.48-.89,2.86-.17,4.26.18.29.07.74.5.71.69-.23,1.3.58,2.27,1.03,3.26-.11.22-.15.43-.24.45-1.73.4-1.72,1.76-1.87,3.13-.9,8.62-.78,17.28-.97,25.93-.21,9.22-.73,18.43-1.01,27.65-.18,5.81-.15,11.63-.25,17.44-.08,4.82-.21,9.65-.3,14.47-.04,1.99.04,3.98-.09,5.96-.1,1.61-.42,3.21-.66,4.99Zm-3.14-.68c.98-2.58,1.07-4.84,1.13-7.09.09-3.39.07-6.78.14-10.16.02-.84.46-1.73.28-2.49-.32-1.36-.2-2.67-.13-4.01.11-1.9.21-3.8.3-5.7.09-1.91.16-3.82.23-5.73.03-.85.01-1.69.06-2.54.09-1.4.22-2.8.31-4.2.05-.77.1-1.54.12-2.31.03-1.05-.02-2.1.04-3.15.05-.85.27-1.69.28-2.53.06-3.04.07-6.07.07-9.11,0-.16-.19-.31-.45-.72-.11.57-.2.88-.22,1.19-.22,3.89-.4,7.77-.64,11.66-.06.98-.32,1.95-.45,2.93-.06.41-.06.84-.05,1.26.01.99.07,1.97.07,2.96-.01,1.77-.08,3.54-.09,5.31-.02,2.62.06,5.24-.02,7.86-.07,2.26-.06,4.5-.44,6.77-.33,1.99-.01,4.08-.02,6.13,0,3.68-.04,7.36-.77,11-.15.72-.35,1.51.24,2.66Zm-6.96-33.47c-.03,1.4-.73,2.76-.24,4.18.55-1.37.28-2.78.24-4.18Zm-1.2,24.71c-.39,1.31-.46,2.59,0,3.87v-3.87Zm5.9-15.44c.07-.19.19-.38.18-.55,0-.09-.25-.16-.39-.25-.05.19-.13.38-.14.57,0,.06.19.13.35.23Zm.49-12.42c-.12.15-.24.25-.22.3.04.11.14.21.22.31v-.61Zm-6.21,25.12s-.05-.12-.09-.13c-.04-.02-.11.02-.16.03.05.08.1.15.15.23.04-.04.07-.08.11-.13Zm5.26-5.4s.11-.09.11-.14c0-.05-.07-.09-.11-.14-.04.05-.11.09-.11.14,0,.05.07.09.11.14Z"/><path d="m164.14,161.19c.16-2.48.17-4.94-.12-7.42-.24-2.03-.09-4.11-.17-6.16-.08-1.84-.24-3.67-.37-5.5-.01-.21-.03-.42-.04-.64-.11-2.83-.2-5.66-.34-8.49-.16-3.04-.38-6.07-.59-9.1-.01-.17-.17-.33-.45-.83.07,2.03.13,3.68.17,5.33.04,1.65.52,3.3.04,5.46-.29-.79-.5-1.13-.53-1.48-.27-3.39-.49-6.79-.76-10.18-.35-4.45-.7-8.91-1.11-13.35-.46-4.87-1-9.73-1.48-14.6-.22-2.26-.4-4.52-.56-6.78-.05-.7-.02-1.42.05-2.12.11-1.11.71-1.71,1.85-1.98,1.06-.25,2.04-.84,3.09-1.17,2.4-.74,4.97,1.04,5.91,2.7.28.49.18,1.53-.17,1.98-.83,1.06-.6,2.13-.4,3.22.83,4.67,1.76,9.33,2.51,14.02,1.17,7.27,2.26,14.56,3.32,21.85.59,4.07,1.09,8.15,1.54,12.23.25,2.25.31,4.52.45,6.78.03.42.07.84.1,1.26.3,4.81.64,9.62.86,14.43.05,1.03-.25,2.1-.53,3.12-.24.87-.88,1.43-1.99,1.37-.91-1.69-.35-3.62-.89-5.41-1.37,1.8-.37,3.98-1,5.95-.43.06-.86.25-1.23.16-.68-.15-1.26-.42-1.96.1-.3.23-.94.03-1.43-.02-.35-.04-.69-.16-1.03-.26q-1.97-.58-2.5-2.83c-.18.73-.29,1.2-.43,1.78-.88-.65-.84-1.45-.88-2.2-.31-6.94-.6-13.89-.91-20.83-.07-1.56-.21-3.11-.28-4.67-.03-.67-.19-1.38.39-2.25.53,1.26.66,2.31.69,3.41.15,5.03.27,10.06.5,15.08.13,2.68.47,5.35.72,8.03l.07.04-.12-.02Zm.38-23.68c.1-.61.3-1.22.27-1.82-.1-1.91-.28-3.81-.43-5.72-.21-2.74-.41-5.48-.62-8.22-.24.32-.29.64-.28.95.09,1.69.19,3.38.3,5.07.21,3.1.42,6.21.64,9.31,0,.13.1.26.15.39.19,5.22.39,10.44.58,15.67.02.64-.02,1.28.07,1.91.06.45.27.88.42,1.32,0-3.98-.19-7.91-.35-11.85-.07-1.69-.07-3.39-.12-5.09-.02-.7.05-1.44-.64-1.92Zm4.37,5.87c-.08,0-.16,0-.24,0v4.89c.08,0,.16,0,.24,0v-4.89Zm4.01,7.82c.07,0,.14,0,.21-.01v-4.27c-.26,1.17-.26,2.34-.26,3.52,0,.26.03.51.05.77Zm-.15-10.56c-.19,1.21-.62,2.42,0,3.64v-3.64Zm-4.48.12c.08-.01.16-.03.24-.04-.05-.81-.1-1.62-.14-2.43-.03,0-.06,0-.1,0v2.47Zm-6.41-19.75s.09,0,.13,0v-2.6s-.09,0-.13.01v2.6Zm1.31-1.71s.06,0,.09,0v-1.78s-.06,0-.09,0v1.78Zm-1.75-4.07s.08,0,.12.01v-1.19h-.12v1.17Zm7.62,37.24c.09,0,.19-.01.28-.02-.03-.37-.06-.74-.09-1.12-.08,0-.16.01-.24.02.02.37.03.74.05,1.12Zm-6.17-38.72s-.07,0-.11,0v.74c.05,0,.11,0,.16,0-.02-.25-.04-.49-.05-.74Zm9.93,22.08c-.08-.21-.13-.33-.18-.46-.16.11-.33.2-.46.33-.03.03.11.31.15.3.17-.03.33-.12.49-.18Zm-3.17,23.18c-.04.05-.1.1-.1.15,0,.05.06.1.09.15.04-.05.1-.1.1-.14,0-.05-.06-.11-.09-.16Zm-1.62-25.76s-.04-.09-.06-.14c-.04.03-.1.06-.11.1,0,.04.03.09.05.14l.12-.09Z"/><path d="m483.33,277.41c.2-.02.41-.03.76-.06-.33,1.37-.63,2.66-.96,3.94-.05.19-.19.44-.35.5-1.22.43-1.08,1.52-1.24,2.46-.17,1.03-.35,2.06-.51,2.94-1.5.82-2.8,1.09-4.29.83-.79-.14-1.68.1-2.49.3-1.72.42-3.03-.07-4.07-1.51-1.12-1.55-1.64-3.27-1.73-5.15-.04-.91.25-1.69.88-2.31,1.31-1.29,2.61-2.59,4.01-3.78.57-.48,1.36-.73,2.07-1.02.59-.23,1.25-.3,1.82-.56,1.65-.76,3.27-.69,4.93-.06,1.2.46,1.4.68,1.33,2.04-.02.49-.09.99-.14,1.48,0,0-.05-.04-.05-.04Zm-6.15,3.33c-.54.68-.85,1.38-.24,2.37.61-.87.68-1.59.24-2.37Zm3.69,3.91c.13-.01.27-.02.4-.03-.03-.25-.05-.51-.08-.76-.11.02-.3.02-.31.05-.02.25-.01.5-.01.74Z"/><path d="m166.92,49.65c.26,2.65.5,5.17.75,7.69.07.71.11,1.42-.69,2.04-.38-.3-.78-.61-1.29-1.01-.13.45-.26.88-.42,1.42-.92,0-1.88.08-2.81-.02-1.28-.14-2.24-.85-2.74-2.05-1.23-2.96-2.15-5.98-1.8-9.25.19-1.74.47-2.05,2.21-2.6.52-.17,1.02-.45,1.48-.75,1.72-1.13,3.34-.6,4.93.28.37.2.71.47,1.03.73,1.12.91,1.17,1.76.18,2.86-.18.2-.43.34-.84.66Zm-8.27-.94c-.06,0-.12,0-.18,0v1.37c.06,0,.12,0,.18,0v-1.36Z"/><path d="m16.61,132c1.03.35.9.96.66,1.97-.3-.89-.48-1.43-.66-1.97Z"/><path d="m136.61,136.43c0,.17,0,.34,0,.52,0-.17,0-.34,0-.52Z"/></g></svg>